#!OML:ASF H:\Male1\Project 1\Capture day 1\Session 1\Male1.ASF
:FULLY-SPECIFIED
:DEGREES
534
root 8.40503 20.2898 0.144801 306.162 -81.3349 -305.481
lowerback 15.6912 2.37268 -9.40768
upperback 6.87433 0.936986 -7.00122
thorax -1.49174 0.13423 -2.27318
lowerneck -8.77801 1.825 1.23505
upperneck 13.3083 1.2965 5.94648
head 5.42943 1.05033 1.7458
rclavicle -7.95139e-015 8.90555e-014
rhumerus -41.6776 11.4447 -94.8572
rradius 37.0112
rwrist -16.3522
rhand -12.728 0.0222341
rfingers 7.12502
rthumb 13.3554 -29.5297
lclavicle -7.95139e-015 8.90555e-014
lhumerus -23.2216 -22.7247 85.8248
lradius 68.7304
lwrist 27.691
lhand -30.3447 17.0614
lfingers 7.12502
lthumb -3.65033 47.0099
rfemur -27.9236 1.54697 16.171
rtibia 32.2932
rfoot -1.43201 -22.5544
rtoes -5.08951
lfemur -23.2266 3.08976 -31.7725
ltibia 73.1083
lfoot -30.2287 -0.806806
ltoes -27.5158
535
root 8.25312 20.1091 0.121098 309.597 -80.7019 -308.813
lowerback 15.4911 2.42038 -9.15264
upperback 6.82438 1.06833 -7.10015
thorax -1.43774 0.209518 -2.53716
lowerneck -8.95419 1.5426 0.899908
upperneck 12.9937 0.945163 6.22268
head 5.3663 0.881521 1.86081
rclavicle 1.27222e-014 -7.79236e-014
rhumerus -42.4061 11.8673 -95.2911
rradius 38.124
rwrist -16.8449
rhand -13.0155 -0.00235133
rfingers 7.12502
rthumb 13.0783 -29.5723
lclavicle 1.27222e-014 -7.79236e-014
lhumerus -23.7223 -23.5041 85.2846
lradius 70.915
lwrist 28.3916
lhand -29.9574 16.7802
lfingers 7.12502
lthumb -3.27634 46.7348
rfemur -25.3965 3.23174 15.7527
rtibia 27.7307
rfoot -5.4766 -26.1396
rtoes 2.79251
lfemur -24.2732 2.76907 -31.5376
ltibia 76.3224
lfoot -30.0895 -1.98372
ltoes -29.1592
536
root 8.10122 19.9123 0.0988724 312.356 -79.9197 -311.502
lowerback 15.4366 2.47097 -8.87193
upperback 6.75434 1.17747 -7.25855
thorax -1.47866 0.276484 -2.87991
lowerneck -9.13305 1.24032 0.583107
upperneck 12.6202 0.57562 6.4618
head 5.28857 0.701448 1.95926
rclavicle -3.4191e-014 -2.8625e-014
rhumerus -43.4092 12.1824 -95.75
rradius 39.6517
rwrist -17.5825
rhand -13.4702 0.03504
rfingers 7.12502
rthumb 12.6399 -29.5625
lclavicle -3.4191e-014 -2.8625e-014
lhumerus -24.2637 -24.488 84.6136
lradius 73.137
lwrist 29.0217
lhand -29.6903 16.4245
lfingers 7.12502
lthumb -3.01837 46.3829
rfemur -22.8404 5.02483 15.1827
rtibia 23.5251
rfoot -10.7342 -29.1219
rtoes 11.7372
lfemur -25.3527 2.46407 -31.3791
ltibia 79.6185
lfoot -29.8262 -3.47297
ltoes -30.1361
537
root 7.94794 19.6976 0.0789102 314.404 -79.0086 -313.518
lowerback 15.5157 2.51933 -8.57085
upperback 6.66071 1.25975 -7.47279
thorax -1.61206 0.332122 -3.295
lowerneck -9.29214 0.918266 0.247244
upperneck 12.2144 0.18689 6.69736
head 5.2004 0.509861 2.05785
rclavicle 1.35174e-014 -9.22361e-014
rhumerus -44.6454 12.4068 -96.2218
rradius 41.4858
rwrist -18.4533
rhand -14.0242 0.175919
rfingers 7.12502
rthumb 12.1058 -29.4539
lclavicle 1.35174e-014 -9.22361e-014
lhumerus -24.8849 -25.5849 83.8277
lradius 75.3762
lwrist 29.6096
lhand -29.6822 15.7474
lfingers 7.12502
lthumb -3.01051 45.7059
rfemur -20.2268 6.72601 14.5377
rtibia 19.6091
rfoot -16.7896 -31.2585
rtoes 21.0403
lfemur -26.3991 2.20846 -31.3117
ltibia 82.9751
lfoot -29.4849 -5.05534
ltoes -30.7696
538
root 7.79111 19.4668 0.0607922 315.881 -78.0116 -315.009
lowerback 15.668 2.56405 -8.29479
upperback 6.56887 1.3222 -7.69095
thorax -1.78091 0.37681 -3.70138
lowerneck -9.4387 0.58308 -0.134076
upperneck 11.7951 -0.20579 6.90447
head 5.10839 0.31209 2.15463
rclavicle 1.03368e-014 -5.24792e-014
rhumerus -46.017 12.6226 -96.6507
rradius 43.4969
rwrist -19.3714
rhand -14.6004 0.44505
rfingers 7.12502
rthumb 11.5501 -29.2167
lclavicle 1.03368e-014 -5.24792e-014
lhumerus -25.5714 -26.6596 82.9799
lradius 77.5911
lwrist 30.1447
lhand -29.8484 14.8291
lfingers 7.12502
lthumb -3.17106 44.7853
rfemur -17.4711 8.17563 13.9197
rtibia 15.813
rfoot -22.6845 -32.7598
rtoes 28.788
lfemur -27.3986 2.03523 -31.2918
ltibia 86.3739
lfoot -29.0363 -6.74817
ltoes -30.9807
539
root 7.62919 19.2194 0.043988 317.013 -76.9718 -316.199
lowerback 15.8553 2.59462 -8.03136
upperback 6.48186 1.36116 -7.89259
thorax -1.9628 0.408744 -4.08189
lowerneck -9.57899 0.243892 -0.534632
upperneck 11.3958 -0.592795 7.0531
head 5.02365 0.113032 2.23698
rclavicle -9.54166e-015 -4.6118e-014
rhumerus -47.4375 12.8367 -97.0151
rradius 45.5491
rwrist -20.25
rhand -15.069 0.837079
rfingers 7.12502
rthumb 11.0982 -28.8495
lclavicle -9.54166e-015 -4.6118e-014
lhumerus -26.3305 -27.6206 82.0924
lradius 79.7445
lwrist 30.6028
lhand -30.0505 13.9518
lfingers 7.12502
lthumb -3.36619 43.905
rfemur -14.4315 9.24791 13.4229
rtibia 11.8388
rfoot -28.0725 -33.9636
rtoes 35.0278
lfemur -28.3355 1.95309 -31.2478
ltibia 89.8154
lfoot -28.4505 -8.64095
ltoes -30.6921
540
root 7.46122 18.9544 0.0275555 317.998 -75.9388 -317.283
lowerback 16.0235 2.60786 -7.79327
upperback 6.41424 1.38381 -8.03227
thorax -2.11545 0.430841 -4.37856
lowerneck -9.73799 -0.0879704 -0.931394
upperneck 11.0435 -0.957888 7.09244
head 4.95741 -0.0802115 2.28671
rclavicle -1.59028e-014 -7.95139e-015
rhumerus -48.8006 13.0772 -97.2508
rradius 47.5174
rwrist -21.042
rhand -15.3146 1.31025
rfingers 7.12502
rthumb 10.8613 -28.3889
lclavicle -1.59028e-014 -7.95139e-015
lhumerus -27.152 -28.3594 81.2205
lradius 81.8042
lwrist 30.9522
lhand -30.2095 13.1246
lfingers 7.12502
lthumb -3.51981 43.0753
rfemur -10.6063 7.36012 13.6057
rtibia 6.82233
rfoot -29.4212 -35.0401
rtoes 39.4886
lfemur -29.2308 1.96064 -31.0804
ltibia 93.3163
lfoot -27.6294 -10.9377
ltoes -29.5821
541
root 7.28732 18.669 0.010196 318.983 -74.956 -318.415
lowerback 16.1597 2.6092 -7.57746
upperback 6.37404 1.40283 -8.07889
thorax -2.22446 0.449724 -4.55991
lowerneck -9.93186 -0.407453 -1.28365
upperneck 10.757 -1.29709 6.98357
head 4.91663 -0.265658 2.28522
rclavicle 1.39149e-014 1.1609e-013
rhumerus -50.0186 13.3258 -97.3073
rradius 49.2997
rwrist -21.727
rhand -15.2776 1.79951
rfingers 7.12502
rthumb 10.897 -27.8977
lclavicle 1.39149e-014 1.1609e-013
lhumerus -28.0425 -28.8286 80.4073
lradius 83.7636
lwrist 31.2035
lhand -30.2496 12.5749
lfingers 7.12502
lthumb -3.55852 42.5249
rfemur -5.74855 5.39886 13.5609
rtibia -6.36111e-015
rfoot -29.7258 -37.5769
rtoes 42.3105
lfemur -30.1107 2.05142 -30.6784
ltibia 96.9095
lfoot -26.4051 -13.8426
ltoes -27.1683
542
root 7.108 18.3599 -0.00760943 319.97 -74.0492 -319.603
lowerback 16.2653 2.6042 -7.36374
upperback 6.34948 1.42696 -8.03904
thorax -2.30266 0.470781 -4.64559
lowerneck -10.1566 -0.708128 -1.57416
upperneck 10.5529 -1.6086 6.74635
head 4.90456 -0.440695 2.23579
rclavicle 3.18055e-015 1.43125e-014
rhumerus -51.0427 13.5142 -97.1703
rradius 50.8134
rwrist -22.2953
rhand -14.9272 2.22406
rfingers 7.12502
rthumb 11.235 -27.4551
lclavicle 3.18055e-015 1.43125e-014
lhumerus -29.0382 -29.0293 79.668
lradius 85.6334
lwrist 31.4072
lhand -30.089 12.3812
lfingers 7.12502
lthumb -3.4034 42.3337
rfemur -4.35154 3.5111 13.7902
rtibia 2.3059e-014
rfoot -30.2428 -37.079
rtoes 44.045
lfemur -30.9931 2.21654 -29.9843
ltibia 100.623
lfoot -24.515 -17.4372
ltoes -22.7738
543
root 6.92483 18.026 -0.0243457 320.859 -73.2233 -320.749
lowerback 16.3406 2.60134 -7.16828
upperback 6.33661 1.46276 -7.92307
thorax -2.3544 0.497045 -4.63894
lowerneck -10.3864 -0.979582 -1.80563
upperneck 10.4092 -1.88101 6.41392
head 4.90889 -0.599207 2.14964
rclavicle -3.57812e-015 1.11319e-014
rhumerus -51.8249 13.6055 -96.8412
rradius 51.9764
rwrist -22.7536
rhand -14.3332 2.51801
rfingers 7.12502
rthumb 11.8078 -27.1291
lclavicle -3.57812e-015 1.11319e-014
lhumerus -30.1479 -28.9643 79.0162
lradius 87.4087
lwrist 31.6192
lhand -29.8007 12.4752
lfingers 7.12502
lthumb -3.12499 42.4321
rfemur -2.80345 1.68172 14.1541
rtibia -3.18055e-015
rfoot -29.0395 -36.7291
rtoes 44.1731
lfemur -31.8765 2.4519 -29.0058
ltibia 104.457
lfoot -21.648 -21.5391
ltoes -15.8765
